HIERARCHY
ROOT Hips
{
	OFFSET 0.00000 0.00000 0.00000
	CHANNELS 6 Xposition Yposition Zposition Zrotation Yrotation Xrotation 
	JOINT LHipJoint
	{
		OFFSET 0 0 0
		CHANNELS 3 Zrotation Yrotation Xrotation
		JOINT LeftUpLeg
		{
			OFFSET 1.57358 -1.76629 0.73362
			CHANNELS 3 Zrotation Yrotation Xrotation
			JOINT LeftLeg
			{
				OFFSET 2.40600 -6.61045 0.00000
				CHANNELS 3 Zrotation Yrotation Xrotation
				JOINT LeftFoot
				{
					OFFSET 2.66168 -7.31291 0.00000
					CHANNELS 3 Zrotation Yrotation Xrotation
					JOINT LeftToeBase
					{
						OFFSET 0.20870 -0.57341 2.12506
						CHANNELS 3 Zrotation Yrotation Xrotation
						End Site
						{
							OFFSET 0.00000 -0.00000 1.10557
						}
					}
				}
			}
		}
	}
	JOINT RHipJoint
	{
		OFFSET 0 0 0
		CHANNELS 3 Zrotation Yrotation Xrotation
		JOINT RightUpLeg
		{
			OFFSET -1.49299 -1.76629 0.73362
			CHANNELS 3 Zrotation Yrotation Xrotation
			JOINT RightLeg
			{
				OFFSET -2.43663 -6.69460 0.00000
				CHANNELS 3 Zrotation Yrotation Xrotation
				JOINT RightFoot
				{
					OFFSET -2.62959 -7.22474 0.00000
					CHANNELS 3 Zrotation Yrotation Xrotation
					JOINT RightToeBase
					{
						OFFSET -0.25784 -0.70841 2.21862
						CHANNELS 3 Zrotation Yrotation Xrotation
						End Site
						{
							OFFSET -0.00000 -0.00000 1.16452
						}
					}
				}
			}
		}
	}
	JOINT LowerBack
	{
		OFFSET 0 0 0
		CHANNELS 3 Zrotation Yrotation Xrotation
		JOINT Spine
		{
			OFFSET -0.00034 2.12399 -0.25450
			CHANNELS 3 Zrotation Yrotation Xrotation
			JOINT Spine1
			{
				OFFSET 0.05594 2.14379 -0.03318
				CHANNELS 3 Zrotation Yrotation Xrotation
				JOINT Neck
				{
					OFFSET 0 0 0
					CHANNELS 3 Zrotation Yrotation Xrotation
					JOINT Neck1
					{
						OFFSET -0.09835 1.62725 0.24211
						CHANNELS 3 Zrotation Yrotation Xrotation
						JOINT Head
						{
							OFFSET 0.10849 1.66041 -0.22648
							CHANNELS 3 Zrotation Yrotation Xrotation
							End Site
							{
								OFFSET 0.04385 1.68267 -0.10541
							}
						}
					}
				}
				JOINT LeftShoulder
				{
					OFFSET 0 0 0
					CHANNELS 3 Zrotation Yrotation Xrotation
					JOINT LeftArm
					{
						OFFSET 3.29108 0.79398 -0.68179
						CHANNELS 3 Zrotation Yrotation Xrotation
						JOINT LeftForeArm
						{
							OFFSET 5.15310 -0.00000 -0.00000
							CHANNELS 3 Zrotation Yrotation Xrotation
							JOINT LeftHand
							{
								OFFSET 3.75138 -0.00000 -0.00000
								CHANNELS 3 Zrotation Yrotation Xrotation
								JOINT LeftFingerBase
								{
									OFFSET 0 0 0
									CHANNELS 3 Zrotation Yrotation Xrotation
									JOINT LeftHandIndex1
									{
										OFFSET 0.52917 -0.00000 0.00000
										CHANNELS 3 Zrotation Yrotation Xrotation
										End Site
										{
											OFFSET 0.42663 -0.00000 0.00000
										}
									}
								}
								JOINT LThumb
								{
									OFFSET 0 0 0
									CHANNELS 3 Zrotation Yrotation Xrotation
									End Site
									{
										OFFSET 0.43315 -0.00000 0.43315
									}
								}
							}
						}
					}
				}
				JOINT RightShoulder
				{
					OFFSET 0 0 0
					CHANNELS 3 Zrotation Yrotation Xrotation
					JOINT RightArm
					{
						OFFSET -3.07414 1.06285 -0.44338
						CHANNELS 3 Zrotation Yrotation Xrotation
						JOINT RightForeArm
						{
							OFFSET -5.29613 -0.00000 0.00000
							CHANNELS 3 Zrotation Yrotation Xrotation
							JOINT RightHand
							{
								OFFSET -3.76144 -0.00000 -0.00000
								CHANNELS 3 Zrotation Yrotation Xrotation
								JOINT RightFingerBase
								{
									OFFSET 0 0 0
									CHANNELS 3 Zrotation Yrotation Xrotation
									JOINT RightHandIndex1
									{
										OFFSET -0.74732 -0.00000 0.00000
										CHANNELS 3 Zrotation Yrotation Xrotation
										End Site
										{
											OFFSET -0.60251 -0.00000 0.00000
										}
									}
								}
								JOINT RThumb
								{
									OFFSET 0 0 0
									CHANNELS 3 Zrotation Yrotation Xrotation
									End Site
									{
										OFFSET -0.61171 -0.00000 0.61171
									}
								}
							}
						}
					}
				}
			}
		}
	}
}
MOTION
Frames: 7
Frame Time: .0083333
14.9499 16.9155 -29.9451 0 0 0 0 0 0 -21 0 0 0 0 0 0 0 0 0 0 0 0 0 0 21 0 0 0 0 0 0 0 0 0 0 0 0 0 0 0 0 0 0 0 0 0 0 -16 0 0 21 0 0 11 0 0 0 -8 0 0 0 0 0 0 0 0 0 0 0 0 0 0 0 0 0 0 0 0 8 0 0 0 0 0 0 0 0 0 0 0 0 0 0 0 0 0
14.9499 16.9155 -29.9451 0.1865 -7.3092 2.1077 0.0000 0.0000 0.0000 -8.9299 -4.1417 -26.8516 17.5733 19.8582 82.8886 0.0058 -1.5529 -1.6281 0.8533 -5.8913 -16.4694 0.0000 0.0000 0.0000 33.2197 3.3198 -4.0386 -4.1490 -12.3561 37.0038 -0.9617 -0.8815 -18.8698 -0.0176 0.8561 -2.3528 2.0183 1.3117 8.3642 3.9744 2.0851 0.8989 2.7516 1.0287 -3.8373 -8.2224 -3.5035 -15.0648 5.0670 -3.7568 12.8086 2.5905 -1.7934 6.6285 0.0000 0.0000 0.0000 -87.5388 15.8244 47.1417 95.9160 -59.8673 -65.1211 -0.0000 0.0000 -23.5340 17.4278 8.3873 2.6217 -7.1250 0.0000 -0.0000 -8.1493 38.6439 1.2860 0.0000 0.0000 0.0000 81.6312 -14.1949 38.2105 -98.0893 59.7513 -66.9997 0.0000 -0.0000 -6.3294 -17.9885 22.5755 -7.1054 7.1250 -0.0000 -0.0000 6.8529 -6.5095 6.0765
14.9261 16.9833 -29.5945 -0.0956 -7.8314 2.3595 0.0000 0.0000 0.0000 -8.4813 -3.9233 -28.2768 16.9769 19.7794 81.1296 0.0261 -1.0275 -2.8697 0.6799 -5.2722 -14.6867 0.0000 0.0000 0.0000 33.3629 3.3086 -2.4736 -3.9506 -12.0944 36.0669 -0.8052 -0.6984 -17.2220 -0.0455 1.3768 -3.7862 2.6633 1.6336 8.3073 3.8644 2.5709 0.7682 2.2180 1.2574 -3.9249 -8.1219 -3.6874 -15.3863 4.9959 -4.0074 13.3959 2.5225 -1.9148 6.8865 -0.0000 -0.0000 0.0000 -87.3018 16.5894 47.1714 96.4984 -59.8398 -65.6248 -0.0000 0.0000 -23.4056 18.4262 9.1124 3.0204 -7.1250 0.0000 -0.0000 -7.4078 39.4718 1.0157 -0.0000 -0.0000 0.0000 81.8038 -14.0724 38.4009 -98.9941 59.6921 -67.7810 0.0000 -0.0000 -6.3271 -17.8232 22.4800 -7.0084 7.1250 -0.0000 -0.0000 6.9500 -6.6308 6.1475
14.9007 17.0612 -29.2435 -0.0159 -7.9328 2.6854 0.0000 0.0000 0.0000 -8.4746 -4.2449 -29.6908 16.2327 19.6563 78.9242 0.0266 0.1154 -3.1252 0.4587 -4.3448 -12.0488 0.0000 0.0000 0.0000 33.0952 3.0333 -1.3363 -3.8039 -11.8948 35.3610 -0.6795 -0.4960 -15.7626 -0.0876 1.9087 -5.2533 2.9480 1.7512 7.9496 3.7584 2.7368 0.6239 1.9375 1.3345 -3.8595 -8.3555 -3.8262 -15.2554 5.0187 -4.1694 13.7696 2.5523 -2.0075 7.0024 0.0000 0.0000 0.0000 -87.3947 17.4866 46.7654 97.2283 -59.8016 -66.2557 -0.0000 0.0000 -23.4385 18.8919 9.3237 3.1734 -7.1250 0.0000 -0.0000 -7.0389 39.7293 0.9197 0.0000 0.0000 0.0000 81.5862 -13.7536 38.9776 -99.4515 59.6598 -68.1759 0.0000 -0.0000 -6.4255 -17.6475 22.4073 -6.9144 7.1250 -0.0000 -0.0000 7.0552 -6.7303 6.2284
14.8752 17.1399 -28.8870 0.1649 -7.7566 3.0055 0.0000 0.0000 0.0000 -8.5729 -4.8200 -30.8303 15.4457 19.4953 76.5755 0.0256 1.2052 -3.7192 0.3054 -3.5531 -9.8226 0.0000 0.0000 0.0000 32.6431 2.3838 -0.4083 -3.6603 -11.6940 34.6580 -0.5477 -0.0039 -13.9862 -0.1038 2.0778 -5.7207 3.2077 1.7428 7.5298 3.5962 2.7317 0.3712 1.6335 1.3257 -3.8668 -8.5288 -3.6739 -14.7593 5.2373 -4.0037 13.7633 2.6758 -1.9252 6.9119 -0.0000 0.0000 0.0000 -87.4642 18.6118 46.2994 97.8746 -59.7644 -66.8142 -0.0000 0.0000 -23.4327 18.8303 9.5241 3.2295 -7.1250 0.0000 -0.0000 -7.1238 39.9335 0.8949 -0.0000 0.0000 0.0000 81.3051 -13.7746 39.7761 -100.2257 59.6012 -68.8439 0.0000 -0.0000 -6.5353 -17.6843 22.2635 -6.8878 7.1250 -0.0000 -0.0000 7.0225 -6.8721 6.1796
14.8481 17.2243 -28.5146 0.5027 -7.7367 3.3666 0.0000 0.0000 0.0000 -8.9442 -5.3503 -31.6992 14.5625 19.2758 73.9151 0.0151 2.3786 -4.3002 0.2774 -3.3879 -9.3605 0.0000 0.0000 0.0000 31.9245 1.7767 0.5313 -3.4961 -11.4579 33.8401 -0.3859 0.5630 -11.5499 -0.0859 1.8899 -5.2015 3.3573 1.7919 6.9786 3.3352 2.7778 0.1746 1.2889 1.3448 -3.7414 -8.5526 -3.5736 -14.7295 5.3755 -3.8923 13.9008 2.7382 -1.8626 6.9462 -0.0000 0.0000 0.0000 -87.4537 19.5049 45.8599 98.2177 -59.7433 -67.1106 -0.0000 0.0000 -23.2246 18.7832 9.9927 3.3774 -7.1250 0.0000 -0.0000 -7.2409 40.4183 0.8229 -0.0000 0.0000 0.0000 81.1961 -14.0771 40.3628 -101.5563 59.4893 -69.9909 0.0000 -0.0000 -6.3693 -17.6737 22.6458 -6.9944 7.1250 -0.0000 -0.0000 7.0550 -6.4826 6.2622
14.8139 17.3009 -28.1778 0.3039 -7.7776 3.9835 0.0000 0.0000 0.0000 -8.5079 -5.8855 -33.0269 13.6553 19.0061 71.1489 -0.0091 3.4384 -4.4350 0.2101 -2.9511 -8.1425 0.0000 0.0000 0.0000 31.9388 1.6893 1.2033 -3.3229 -11.2003 32.9583 -0.2223 0.4951 -8.7431 -0.0752 1.7694 -4.8689 3.7781 1.8442 6.7660 3.3092 2.8909 -0.2751 1.0165 1.3859 -4.0681 -8.6756 -3.6790 -14.2602 5.2801 -4.0438 14.2031 2.7164 -1.9596 6.9755 0.0000 -0.0000 0.0000 -87.6493 20.7177 45.2142 98.7809 -59.7066 -67.5970 -0.0000 0.0000 -23.0731 18.9082 9.8119 3.3408 -7.1250 0.0000 -0.0000 -7.1025 40.2404 0.8383 0.0000 -0.0000 0.0000 80.9284 -14.6869 40.9528 -102.7723 59.3745 -71.0379 0.0000 -0.0000 -6.1245 -17.3635 23.0002 -6.9656 7.1250 -0.0000 -0.0000 7.2732 -6.1648 6.5040
